<svg id="Layer_1" data-name="Layer 1" xmlns="http://www.w3.org/2000/svg" viewBox="0 0 236.91 74.18"><defs><style>.cls-1{fill:#d7dbfd;}</style></defs><path class="cls-1" d="M661.89,535.33V486.9L641,518.58h-.43l-20.66-31.36v48.11h-16V461.15h17.59L641,492.51l19.5-31.36h17.59v74.18Z" transform="translate(-603.93 -461.15)"/><path class="cls-1" d="M720.32,535.33c-22.13,0-38-16.5-38-36.89v-.2c0-20.39,16.09-37.09,38.22-37.09s38,16.49,38,36.88v.21C758.54,518.63,742.45,535.33,720.32,535.33ZM742,498.24c0-12.3-9-22.54-21.72-22.54s-21.51,10-21.51,22.33v.21c0,12.29,9,22.54,21.72,22.54s21.51-10,21.51-22.34Z" transform="translate(-603.93 -461.15)"/><path class="cls-1" d="M804,461.36H762.75v15H804a21.88,21.88,0,1,1,0,43.75H762.75v15H804a36.88,36.88,0,1,0,0-73.75Z" transform="translate(-603.93 -461.15)"/></svg>